<svg width="213" height="242" viewBox="0 0 213 242" fill="none" xmlns="http://www.w3.org/2000/svg">
<g filter="url(#filter0_d_1_8)">
<path d="M107.288 52.5907H105.288L99.7875 37.0907L94.7875 26.0907C95.0083 25.9342 87.5059 17.437 86.2875 16.0907C85.0691 14.7444 79.0835 7.56397 76.2875 6.09068C73.4916 4.61739 70.5488 3.62703 64.2875 3.09068C59.5756 2.87591 56.9463 3.24249 52.2875 5.09068C46.6024 8.48395 43.8467 10.7766 40.2875 16.0907C36.6018 23.3765 36.5694 27.2365 36.7875 34.0907C31.8947 32.6025 29.5777 32.8305 25.7875 34.0907C19.28 37.2934 13.2827 41.9775 8.78752 50.0907C8.23751 55.1904 8.23804 57.9251 8.78752 62.5907C10.0537 75.7094 14.0644 81.4825 25.7875 89.5907C32.1361 93.6805 36.8418 96.1481 48.7875 101.091V103.091C35.1441 104.284 28.4888 106.452 18.7875 113.591C12.0047 119.221 8.70495 122.852 6.28752 132.591C5.6473 139.54 5.9119 143.392 8.78752 150.091C13.802 158.478 18.1691 161.435 28.7875 163.591C27.3392 170.167 27.3573 173.667 28.7875 179.591C31.3561 186.676 34.7345 190.544 47.2875 197.091C54.3021 198.383 58.3367 198.481 65.7875 197.091C71.3133 194.655 74.1997 192.872 78.7875 188.591C89.7974 178.397 95.1508 172.049 101.288 158.091H103.288C103.288 158.091 102.387 161.416 103.288 172.591C104.188 183.765 105.479 190.002 108.788 201.091L121.288 231.591H128.288C120.941 216.545 117.74 207.978 112.788 192.591C110.657 179.02 109.904 171.224 110.288 156.591C116.589 169.285 120.876 176.169 131.288 187.591C137.052 193.558 141.213 195.965 150.288 198.591C154.796 199.454 157.756 199.448 163.788 198.591C170.473 196.264 174.069 194.581 179.288 188.591C184.517 179.1 186.098 173.673 183.788 163.591C189.636 163.361 193.179 162.122 200.288 156.591C205.35 150.64 206.684 145.963 206.788 135.591C205.36 124.707 201.679 119.588 191.788 111.591C182.08 106.156 175.887 104.403 163.788 103.091V101.091L183.788 92.0907C191.524 87.1229 195.198 83.8809 200.288 77.0907C202.819 72.7059 203.91 70.3682 204.788 66.5907C205.475 60.7884 205.442 57.7395 204.788 52.5907C203.402 48.6706 202.416 46.695 199.788 44.0907L191.788 37.0907C189.386 35.281 187.64 34.6195 183.788 34.0907H174.788C174.788 34.0907 174.535 34.4508 174.788 27.5907C175.04 20.7306 173.26 17.3058 168.288 11.5907C166.506 8.47042 164.354 7.63663 159.288 4.09068C156.788 3.09068 154.912 2.4812 151.788 2.09068C148.283 1.85455 146.313 2.04325 142.788 3.09068C137.493 4.83968 135.062 6.34921 131.288 9.59068C126.257 14.1447 124.335 16.6476 121.288 21.0907L112.788 36.0907L107.288 52.5907Z" fill="#32692D"/>
<path d="M107.288 52.5907H105.288L99.7875 37.0907L94.7875 26.0907C95.0083 25.9342 87.5059 17.437 86.2875 16.0907C85.0691 14.7444 79.0835 7.56397 76.2875 6.09068C73.4916 4.61739 70.5488 3.62703 64.2875 3.09068C59.5756 2.87591 56.9463 3.24249 52.2875 5.09068C46.6024 8.48395 43.8467 10.7766 40.2875 16.0907C36.6018 23.3765 36.5694 27.2365 36.7875 34.0907C31.8947 32.6025 29.5777 32.8305 25.7875 34.0907C19.28 37.2934 13.2827 41.9775 8.78752 50.0907C8.23751 55.1904 8.23804 57.9251 8.78752 62.5907C10.0537 75.7094 14.0644 81.4825 25.7875 89.5907C32.1361 93.6805 36.8418 96.1481 48.7875 101.091V103.091C35.1441 104.284 28.4888 106.452 18.7875 113.591C12.0047 119.221 8.70495 122.852 6.28752 132.591C5.6473 139.54 5.9119 143.392 8.78752 150.091C13.802 158.478 18.1691 161.435 28.7875 163.591C27.3392 170.167 27.3573 173.667 28.7875 179.591C31.3561 186.676 34.7345 190.544 47.2875 197.091C54.3021 198.383 58.3367 198.481 65.7875 197.091C71.3133 194.655 74.1997 192.872 78.7875 188.591C89.7974 178.397 95.1508 172.049 101.288 158.091H103.288C103.288 158.091 102.387 161.416 103.288 172.591C104.188 183.765 105.479 190.002 108.788 201.091L121.288 231.591H128.288C120.941 216.545 117.74 207.978 112.788 192.591C110.657 179.02 109.904 171.224 110.288 156.591C116.589 169.285 120.876 176.169 131.288 187.591C137.052 193.558 141.213 195.965 150.288 198.591C154.796 199.454 157.756 199.448 163.788 198.591C170.473 196.264 174.069 194.581 179.288 188.591C184.517 179.1 186.098 173.673 183.788 163.591C189.636 163.361 193.179 162.122 200.288 156.591C205.35 150.64 206.684 145.963 206.788 135.591C205.36 124.707 201.679 119.588 191.788 111.591C182.08 106.156 175.887 104.403 163.788 103.091V101.091L183.788 92.0907C191.524 87.1229 195.198 83.8809 200.288 77.0907C202.819 72.7059 203.91 70.3682 204.788 66.5907C205.475 60.7884 205.442 57.7395 204.788 52.5907C203.402 48.6706 202.416 46.695 199.788 44.0907L191.788 37.0907C189.386 35.281 187.64 34.6195 183.788 34.0907H174.788C174.788 34.0907 174.535 34.4508 174.788 27.5907C175.04 20.7306 173.26 17.3058 168.288 11.5907C166.506 8.47042 164.354 7.63663 159.288 4.09068C156.788 3.09068 154.912 2.4812 151.788 2.09068C148.283 1.85455 146.313 2.04325 142.788 3.09068C137.493 4.83968 135.062 6.34921 131.288 9.59068C126.257 14.1447 124.335 16.6476 121.288 21.0907L112.788 36.0907L107.288 52.5907Z" stroke="#01743D"/>
</g>
<path d="M56.64 87.96H69.78V93H50.16V67.8H56.64V87.96ZM88.5084 74.64C88.5084 73.2 87.7884 72.48 86.3484 72.48H80.2284C78.7884 72.48 78.0684 73.2 78.0684 74.64V86.16C78.0684 87.6 78.7884 88.32 80.2284 88.32H86.3484C87.7884 88.32 88.5084 87.6 88.5084 86.16V74.64ZM94.9884 86.16C94.9884 88.68 94.4124 90.516 93.2604 91.668C92.1324 92.796 90.3084 93.36 87.7884 93.36H78.7884C76.2684 93.36 74.4324 92.796 73.2804 91.668C72.1524 90.516 71.5884 88.68 71.5884 86.16V74.64C71.5884 72.12 72.1524 70.296 73.2804 69.168C74.4324 68.016 76.2684 67.44 78.7884 67.44H87.7884C90.3084 67.44 92.1324 68.016 93.2604 69.168C94.4124 70.296 94.9884 72.12 94.9884 74.64V86.16ZM110.845 93H104.365V72.84H96.8053V67.8H118.405V72.84H110.845V93ZM133.17 93H126.69V72.84H119.13V67.8H140.73V72.84H133.17V93ZM159.454 74.64C159.454 73.2 158.734 72.48 157.294 72.48H151.174C149.734 72.48 149.014 73.2 149.014 74.64V86.16C149.014 87.6 149.734 88.32 151.174 88.32H157.294C158.734 88.32 159.454 87.6 159.454 86.16V74.64ZM165.934 86.16C165.934 88.68 165.358 90.516 164.206 91.668C163.078 92.796 161.254 93.36 158.734 93.36H149.734C147.214 93.36 145.378 92.796 144.226 91.668C143.098 90.516 142.534 88.68 142.534 86.16V74.64C142.534 72.12 143.098 70.296 144.226 69.168C145.378 68.016 147.214 67.44 149.734 67.44H158.734C161.254 67.44 163.078 68.016 164.206 69.168C165.358 70.296 165.934 72.12 165.934 74.64V86.16ZM54.66 136H47.64L57.18 110.8H64.38L73.92 136H66.9L65.28 131.5H56.28L54.66 136ZM57.9 126.82H63.66L60.78 118.36L57.9 126.82ZM82.1986 130.96H95.3386V136H75.7186V110.8H82.1986V130.96ZM97.867 110.8H112.987C115.507 110.8 117.331 111.376 118.459 112.528C119.611 113.656 120.187 115.48 120.187 118V121.6C120.187 124.12 119.611 125.956 118.459 127.108C117.331 128.236 115.507 128.8 112.987 128.8H104.347V136H97.867V110.8ZM113.707 118C113.707 116.56 112.987 115.84 111.547 115.84H104.347V123.76H111.547C112.987 123.76 113.707 123.04 113.707 121.6V118ZM145.386 136H138.906V125.74H129.906V136H123.426V110.8H129.906V120.7H138.906V110.8H145.386V136ZM154.223 136H147.202L156.743 110.8H163.943L173.483 136H166.463L164.843 131.5H155.843L154.223 136ZM157.463 126.82H163.223L160.343 118.36L157.463 126.82Z" fill="white"/>
<defs>
<filter id="filter0_d_1_8" x="0.5" y="0.500092" width="211.788" height="240.591" filterUnits="userSpaceOnUse" color-interpolation-filters="sRGB">
<feFlood flood-opacity="0" result="BackgroundImageFix"/>
<feColorMatrix in="SourceAlpha" type="matrix" values="0 0 0 0 0 0 0 0 0 0 0 0 0 0 0 0 0 0 127 0" result="hardAlpha"/>
<feOffset dy="4"/>
<feGaussianBlur stdDeviation="2.5"/>
<feComposite in2="hardAlpha" operator="out"/>
<feColorMatrix type="matrix" values="0 0 0 0 0 0 0 0 0 0 0 0 0 0 0 0 0 0 0.25 0"/>
<feBlend mode="normal" in2="BackgroundImageFix" result="effect1_dropShadow_1_8"/>
<feBlend mode="normal" in="SourceGraphic" in2="effect1_dropShadow_1_8" result="shape"/>
</filter>
</defs>
</svg>
